# xmcd
#
# Track frame offsets: 
#        150
#        17372
#        39237
#        62093
#        81568
#        99288
#        125135
#        163077
#        180776
#        194411
#        218708
#        256788
#
# Disc length: 3651 seconds
#
# Revision: 0
# Processed by: cddbd v1.5.2PL0 Copyright (c) Steve Scherf et al.
# Submitted via: ExactAudioCopy v0.99pb4
#
DISCID=960e410c
DTITLE=Foxy - Foxy
DYEAR=1976
DGENRE=Soul
TTITLE0=You Make Me Hot
TTITLE1=People Fall In Love (While Dancing)
TTITLE2=Get Off Your Aahh! And Dance
TTITLE3=Baby, I'm Leaving
TTITLE4=What's It Take
TTITLE5=Let's Love
TTITLE6=The Way You Do The Things You Do [12'' Version]
TTITLE7=Get Off Your Aahh! And Dance (Part 1) [Single Version]
TTITLE8=You Make Me Hot [Single Version]
TTITLE9=Let's Love [12" Version]
TTITLE10=The Way You Do The Things You Do [12'' Instrumental Version]
TTITLE11=The Way You Do The Things You Do [Single Version]
EXTD=
EXTT0=
EXTT1=
EXTT2=
EXTT3=
EXTT4=
EXTT5=
EXTT6=
EXTT7=
EXTT8=
EXTT9=
EXTT10=
EXTT11=
PLAYORDER=
